<?xml version="1.0" encoding="UTF-8"?>
<svg id="Capa_2" data-name="Capa 2" xmlns="http://www.w3.org/2000/svg" viewBox="0 0 936.37 76">
  <defs>
    <style>
      .cls-1 {
        fill: #2b3e4c;
        stroke-width: 0px;
      }
    </style>
  </defs>
  <g id="NOTAS">
    <g>
      <path class="cls-1" d="M0,51.28v-12.24h1.61l4.44,9.21,4.41-9.21h1.62v12.23h-1.68v-8.37l-3.95,8.38h-.81l-3.96-8.38v8.38H0Z"/>
      <path class="cls-1" d="M14.63,40.59v-1.73h1.78v1.73h-1.78ZM14.63,51.28v-9.18h1.78v9.18h-1.78Z"/>
      <path class="cls-1" d="M18.95,51.28v-9.18h1.59v2.65h.21v6.53h-1.8ZM25.4,51.28v-4.51c0-.36-.03-.72-.09-1.1-.06-.38-.17-.73-.34-1.05-.17-.32-.4-.58-.71-.78-.3-.2-.7-.3-1.19-.3-.32,0-.62.05-.9.16-.28.1-.53.27-.74.51-.21.23-.38.54-.5.92-.12.38-.18.84-.18,1.39l-1.1-.42c0-.83.16-1.57.47-2.21.31-.64.76-1.13,1.34-1.49s1.29-.54,2.12-.54c.63,0,1.17.1,1.6.31s.78.47,1.05.8.47.69.62,1.08.24.77.29,1.15c.05.37.08.7.08.99v5.1h-1.8Z"/>
      <path class="cls-1" d="M29.58,40.59v-1.73h1.78v1.73h-1.78ZM29.58,51.28v-9.18h1.78v9.18h-1.78Z"/>
      <path class="cls-1" d="M37.42,51.52c-1.12,0-2.03-.25-2.73-.74-.7-.49-1.13-1.19-1.29-2.08l1.82-.28c.11.48.38.85.79,1.13.41.28.92.41,1.53.41.56,0,.99-.11,1.3-.34.31-.23.47-.54.47-.93,0-.23-.06-.42-.17-.57s-.34-.28-.69-.41c-.35-.13-.89-.29-1.61-.48-.79-.2-1.41-.42-1.87-.66-.46-.23-.79-.51-.99-.82-.2-.31-.29-.7-.29-1.14,0-.56.15-1.04.44-1.45s.71-.73,1.25-.96c.54-.23,1.16-.34,1.88-.34s1.33.11,1.88.33c.55.22.99.53,1.33.94.34.4.54.88.61,1.42l-1.82.33c-.06-.44-.27-.79-.62-1.05-.35-.25-.81-.39-1.37-.42-.54-.02-.97.07-1.31.27s-.5.48-.5.83c0,.2.06.38.19.52s.38.28.74.41.91.29,1.63.47c.77.2,1.38.42,1.84.66.45.24.78.53.97.86.2.33.29.73.29,1.2,0,.91-.33,1.62-.99,2.13s-1.57.77-2.73.77Z"/>
      <path class="cls-1" d="M42,43.53v-1.43h6.27v1.43h-6.27ZM48.27,51.28c-.58.11-1.14.16-1.7.14-.56-.02-1.05-.12-1.49-.32-.44-.2-.76-.51-.99-.93-.2-.38-.3-.77-.32-1.16-.01-.39-.02-.84-.02-1.34v-8.12h1.78v8.03c0,.37,0,.69.01.96,0,.27.07.5.17.69.2.35.53.55.97.6s.97.03,1.57-.06v1.5Z"/>
      <path class="cls-1" d="M53.85,51.53c-.91,0-1.71-.2-2.4-.6s-1.22-.96-1.61-1.67c-.38-.72-.57-1.55-.57-2.5,0-1,.19-1.87.56-2.61.38-.74.9-1.31,1.58-1.71s1.46-.6,2.35-.6,1.73.22,2.39.65,1.15,1.05,1.47,1.85c.33.8.46,1.75.39,2.85h-1.78v-.65c-.01-1.07-.21-1.85-.61-2.36-.39-.51-.99-.76-1.8-.76-.89,0-1.56.28-2.01.84-.45.56-.67,1.37-.67,2.43s.22,1.79.67,2.34c.45.55,1.09.83,1.94.83.56,0,1.04-.13,1.44-.38.41-.25.72-.61.95-1.08l1.74.55c-.36.82-.9,1.46-1.62,1.91-.73.45-1.53.68-2.42.68ZM50.57,47.19v-1.39h6.55v1.39h-6.55Z"/>
      <path class="cls-1" d="M59.92,51.28v-9.18h1.58v2.23l-.22-.29c.11-.29.26-.56.44-.81.18-.25.39-.45.63-.61.23-.17.49-.3.78-.4.29-.09.58-.15.88-.17.3-.02.59,0,.87.05v1.67c-.3-.08-.63-.1-1-.07-.37.03-.7.15-1.01.35-.29.19-.52.41-.68.68-.17.27-.29.56-.36.89-.07.33-.11.67-.11,1.03v4.63h-1.79Z"/>
      <path class="cls-1" d="M66.66,40.59v-1.73h1.78v1.73h-1.78ZM66.66,51.28v-9.18h1.78v9.18h-1.78Z"/>
      <path class="cls-1" d="M74.97,51.53c-.92,0-1.71-.21-2.39-.62s-1.19-.98-1.56-1.71c-.37-.73-.55-1.57-.55-2.52s.19-1.8.56-2.53c.37-.73.9-1.29,1.57-1.7s1.46-.61,2.36-.61,1.71.21,2.39.62,1.2.98,1.56,1.71c.37.73.55,1.56.55,2.51s-.19,1.8-.56,2.53c-.37.73-.89,1.3-1.57,1.71-.67.41-1.47.62-2.38.62ZM74.97,49.86c.88,0,1.53-.3,1.97-.89.43-.59.65-1.36.65-2.29s-.22-1.72-.66-2.3c-.44-.57-1.09-.86-1.96-.86-.59,0-1.08.13-1.47.4-.39.27-.67.64-.86,1.11s-.28,1.02-.28,1.64c0,.96.22,1.73.66,2.31.44.58,1.09.87,1.95.87Z"/>
      <path class="cls-1" d="M88.39,51.53c-.86,0-1.59-.21-2.21-.64-.62-.43-1.1-1-1.44-1.74-.34-.73-.51-1.56-.51-2.48s.17-1.75.51-2.48.82-1.3,1.45-1.73c.63-.42,1.37-.63,2.23-.63s1.6.21,2.19.63c.59.42,1.04,1,1.34,1.73.3.73.45,1.56.45,2.47s-.15,1.74-.46,2.47-.76,1.31-1.35,1.74c-.59.43-1.33.64-2.21.64ZM88.64,49.93c.58,0,1.06-.14,1.43-.42.37-.28.64-.66.81-1.15s.26-1.05.26-1.68-.09-1.2-.26-1.68c-.17-.49-.44-.87-.8-1.14s-.82-.41-1.37-.41c-.59,0-1.07.14-1.45.43-.38.29-.66.68-.85,1.16s-.28,1.03-.28,1.63.09,1.15.28,1.65.46.88.83,1.17.84.43,1.41.43ZM91.13,51.28v-6.6h-.2v-5.64h1.78v12.24h-1.58Z"/>
      <path class="cls-1" d="M99.16,51.53c-.91,0-1.71-.2-2.4-.6s-1.22-.96-1.61-1.67c-.38-.72-.57-1.55-.57-2.5,0-1,.19-1.87.56-2.61.38-.74.9-1.31,1.58-1.71s1.46-.6,2.35-.6,1.73.22,2.39.65,1.15,1.05,1.47,1.85c.33.8.46,1.75.39,2.85h-1.78v-.65c-.01-1.07-.21-1.85-.61-2.36-.39-.51-.99-.76-1.8-.76-.89,0-1.56.28-2.01.84-.45.56-.67,1.37-.67,2.43s.22,1.79.67,2.34c.45.55,1.09.83,1.94.83.56,0,1.04-.13,1.44-.38.41-.25.72-.61.95-1.08l1.74.55c-.36.82-.9,1.46-1.62,1.91-.73.45-1.53.68-2.42.68ZM95.89,47.19v-1.39h6.55v1.39h-6.55Z"/>
      <path class="cls-1" d="M0,67.92v-12.24h7.82v1.67H1.78v3.43h5.02v1.67H1.78v3.78h6.04v1.67H0Z"/>
      <path class="cls-1" d="M13.51,68.18c-.86,0-1.59-.21-2.21-.64-.62-.43-1.1-1-1.44-1.74-.34-.73-.51-1.56-.51-2.48s.17-1.75.51-2.48.82-1.3,1.45-1.73c.63-.42,1.37-.63,2.23-.63s1.6.21,2.19.63c.59.42,1.04,1,1.34,1.73.3.73.45,1.56.45,2.47s-.15,1.74-.46,2.47-.76,1.31-1.35,1.74c-.59.43-1.33.64-2.21.64ZM13.75,66.57c.58,0,1.06-.14,1.43-.42.37-.28.64-.66.81-1.15s.26-1.05.26-1.68-.09-1.2-.26-1.68c-.17-.49-.44-.87-.8-1.14s-.82-.41-1.37-.41c-.59,0-1.07.14-1.45.43-.38.29-.66.68-.85,1.16s-.28,1.03-.28,1.63.09,1.15.28,1.65.46.88.83,1.17.84.43,1.41.43ZM16.24,67.92v-6.6h-.2v-5.64h1.78v12.24h-1.58Z"/>
      <path class="cls-1" d="M23.66,68.17c-.63,0-1.17-.1-1.6-.31s-.78-.47-1.05-.8c-.27-.33-.48-.69-.62-1.08-.14-.39-.24-.77-.29-1.15-.05-.37-.08-.7-.08-.99v-5.1h1.8v4.51c0,.36.03.72.09,1.1.06.38.17.73.34,1.05.17.32.4.58.71.78s.7.3,1.19.3c.32,0,.62-.05.9-.16s.53-.27.74-.51.38-.54.5-.92c.12-.38.18-.84.18-1.39l1.1.42c0,.83-.16,1.57-.47,2.21s-.76,1.13-1.34,1.49c-.58.36-1.29.54-2.12.54ZM26.7,67.92v-2.65h-.21v-6.53h1.79v9.18h-1.58Z"/>
      <path class="cls-1" d="M34.59,68.18c-.94,0-1.74-.21-2.4-.63-.66-.42-1.16-.99-1.51-1.73-.35-.73-.53-1.56-.53-2.49,0-.95.19-1.78.54-2.51s.87-1.3,1.53-1.71,1.46-.62,2.39-.62c1,0,1.86.25,2.57.75.71.5,1.18,1.18,1.41,2.05l-1.77.51c-.18-.52-.46-.92-.86-1.2s-.86-.43-1.37-.43c-.58,0-1.06.14-1.44.41s-.65.65-.83,1.13c-.18.48-.27,1.02-.28,1.63,0,.95.22,1.71.65,2.29s1.06.88,1.9.88c.57,0,1.04-.13,1.39-.4.35-.26.62-.64.81-1.13l1.8.43c-.3.9-.8,1.58-1.49,2.06-.69.48-1.53.72-2.52.72Z"/>
      <path class="cls-1" d="M42.81,68.18c-.68,0-1.25-.13-1.71-.38-.46-.25-.81-.59-1.04-1s-.35-.87-.35-1.37c0-.46.08-.87.25-1.22.16-.35.41-.65.73-.9.32-.25.72-.45,1.19-.6.41-.12.87-.22,1.39-.31.52-.09,1.06-.18,1.63-.25.57-.08,1.13-.16,1.7-.24l-.65.36c.01-.72-.14-1.25-.46-1.6-.31-.35-.85-.52-1.62-.52-.48,0-.92.11-1.33.34-.4.22-.68.59-.84,1.11l-1.66-.51c.23-.79.66-1.41,1.3-1.88.64-.46,1.49-.7,2.55-.7.82,0,1.54.14,2.15.42.61.28,1.06.72,1.34,1.33.15.3.24.62.27.95.03.33.05.69.05,1.08v5.65h-1.57v-2.1l.31.27c-.38.7-.86,1.23-1.45,1.57s-1.31.51-2.16.51ZM43.12,66.72c.5,0,.94-.09,1.3-.27.36-.18.65-.41.88-.68s.37-.57.43-.87c.1-.27.15-.58.17-.92s.02-.61.02-.82l.58.21c-.56.08-1.07.16-1.53.23s-.87.13-1.25.2c-.37.07-.7.14-.99.23-.24.08-.46.19-.65.31-.19.12-.34.26-.45.43-.11.17-.17.38-.17.62s.06.46.18.66c.12.2.3.36.54.48s.56.18.94.18Z"/>
      <path class="cls-1" d="M53.82,68.18c-.94,0-1.74-.21-2.4-.63-.66-.42-1.16-.99-1.51-1.73-.35-.73-.53-1.56-.53-2.49,0-.95.19-1.78.54-2.51s.87-1.3,1.53-1.71,1.46-.62,2.39-.62c1,0,1.86.25,2.57.75.71.5,1.18,1.18,1.41,2.05l-1.77.51c-.18-.52-.46-.92-.86-1.2s-.86-.43-1.37-.43c-.58,0-1.06.14-1.44.41s-.65.65-.83,1.13c-.18.48-.27,1.02-.28,1.63,0,.95.22,1.71.65,2.29s1.06.88,1.9.88c.57,0,1.04-.13,1.39-.4.35-.26.62-.64.81-1.13l1.8.43c-.3.9-.8,1.58-1.49,2.06-.69.48-1.53.72-2.52.72Z"/>
      <path class="cls-1" d="M59.47,57.24v-1.73h1.78v1.73h-1.78ZM59.47,67.92v-9.18h1.78v9.18h-1.78Z"/>
      <path class="cls-1" d="M67.79,68.18c-.92,0-1.71-.21-2.39-.62s-1.19-.98-1.56-1.71c-.37-.73-.55-1.57-.55-2.52s.19-1.8.56-2.53c.37-.73.9-1.29,1.57-1.7s1.46-.61,2.36-.61,1.71.21,2.39.62,1.2.98,1.56,1.71c.37.73.55,1.56.55,2.51s-.19,1.8-.56,2.53c-.37.73-.89,1.3-1.57,1.71-.67.41-1.47.62-2.38.62ZM67.79,66.5c.88,0,1.53-.3,1.97-.89.43-.59.65-1.36.65-2.29s-.22-1.72-.66-2.3c-.44-.57-1.09-.86-1.96-.86-.59,0-1.08.13-1.47.4-.39.27-.67.64-.86,1.11s-.28,1.02-.28,1.64c0,.96.22,1.73.66,2.31.44.58,1.09.87,1.95.87ZM68.49,57.38h-1.39l1.22-2.98h1.39l-1.22,2.98Z"/>
      <path class="cls-1" d="M74.15,67.92v-9.18h1.59v2.65h.21v6.53h-1.8ZM80.6,67.92v-4.51c0-.36-.03-.72-.09-1.1-.06-.38-.17-.73-.34-1.05-.17-.32-.4-.58-.71-.78-.3-.2-.7-.3-1.19-.3-.32,0-.62.05-.9.16-.28.1-.53.27-.74.51-.21.23-.38.54-.5.92-.12.38-.18.84-.18,1.39l-1.1-.42c0-.83.16-1.57.47-2.21.31-.64.76-1.13,1.34-1.49s1.29-.54,2.12-.54c.63,0,1.17.1,1.6.31s.78.47,1.05.8.47.69.62,1.08.24.77.29,1.15c.05.37.08.7.08.99v5.1h-1.8Z"/>
    </g>
    <g>
      <g>
        <path class="cls-1" d="M835.67,26.88c0-3.66,2.07-5.97,5.28-5.97,2.56,0,4.13,1.28,4.73,3.35l-1.43.29c-.49-1.39-1.59-2.28-3.23-2.29-2.56-.02-3.83,1.86-3.85,4.61-.02,2.75,1.28,4.6,3.85,4.62,2.21.02,3.36-1.33,3.54-3.62h-2.44v-1.17h3.93c.02.22.03.58.03.68,0,3.15-1.78,5.46-5.14,5.46-3.16,0-5.28-2.28-5.28-5.97Z"/>
        <path class="cls-1" d="M846.88,28.3c0-2.7,1.62-4.53,4.14-4.53s4.15,1.87,4.15,4.53-1.59,4.55-4.15,4.55-4.14-1.88-4.14-4.55ZM853.67,28.3c0-1.94-.88-3.19-2.64-3.19s-2.64,1.31-2.64,3.19.9,3.2,2.64,3.2,2.64-1.31,2.64-3.2Z"/>
        <path class="cls-1" d="M856.6,32.61v-11.47h1.43v3.65c.61-.65,1.47-1.02,2.54-1.02,2.39,0,3.85,1.95,3.85,4.53s-1.45,4.55-3.86,4.55c-1.16,0-2.06-.45-2.69-1.21v.97h-1.27ZM862.91,28.3c0-1.82-.81-3.23-2.56-3.23s-2.48,1.33-2.48,3.23.78,3.25,2.52,3.25,2.53-1.42,2.53-3.25Z"/>
        <path class="cls-1" d="M866.01,22.49v-1.47h1.42v1.47h-1.42ZM866.01,32.61v-8.6h1.42v8.6h-1.42Z"/>
        <path class="cls-1" d="M869.02,28.37c0-2.82,1.64-4.6,4.14-4.6s4.1,1.88,3.97,4.94h-6.6c.11,1.78,1.04,2.8,2.62,2.8,1.13,0,1.99-.53,2.47-1.51l1.36.47c-.68,1.52-2.1,2.39-3.77,2.39-2.54,0-4.21-1.79-4.21-4.48ZM870.56,27.57h5.1c-.18-1.69-1-2.52-2.45-2.52-1.54,0-2.44.89-2.64,2.52Z"/>
        <path class="cls-1" d="M878.59,32.61v-8.6h1.27v1.36c.19-.33.45-.63.73-.84.66-.53,1.67-.69,2.44-.53v1.33c-.6-.15-1.37-.11-1.97.33-.84.6-1.04,1.61-1.04,2.63v4.32h-1.43Z"/>
        <path class="cls-1" d="M884.21,32.61v-8.6h1.27v1.11c.64-.85,1.63-1.33,2.87-1.33,2.77,0,3.43,2.44,3.43,4.07v4.76h-1.43v-4.31c0-1.62-.52-3.17-2.33-3.17-1.43,0-2.37.96-2.37,2.95v4.53h-1.43Z"/>
        <path class="cls-1" d="M892.97,28.3c0-2.7,1.62-4.53,4.14-4.53s4.15,1.87,4.15,4.53-1.59,4.55-4.15,4.55-4.14-1.88-4.14-4.55ZM899.76,28.3c0-1.94-.88-3.19-2.64-3.19s-2.64,1.31-2.64,3.19.9,3.2,2.64,3.2,2.64-1.31,2.64-3.2Z"/>
        <path class="cls-1" d="M835.83,44.75c0-2.58,1.46-4.53,3.85-4.53,1.08,0,1.93.37,2.54,1.02v-3.65h1.43v11.47h-1.27v-.97c-.63.76-1.53,1.21-2.69,1.21-2.41,0-3.86-1.97-3.86-4.55ZM842.38,44.75c0-1.9-.8-3.23-2.48-3.23s-2.56,1.42-2.56,3.23.83,3.25,2.53,3.25,2.52-1.36,2.52-3.25Z"/>
        <path class="cls-1" d="M845.08,44.81c0-2.82,1.64-4.6,4.14-4.6s4.1,1.88,3.97,4.94h-6.6c.11,1.78,1.04,2.8,2.62,2.8,1.13,0,1.99-.53,2.47-1.51l1.36.47c-.68,1.52-2.1,2.39-3.77,2.39-2.54,0-4.21-1.79-4.21-4.48ZM846.62,44.01h5.1c-.18-1.69-1-2.53-2.45-2.53-1.54,0-2.44.89-2.64,2.53Z"/>
        <path class="cls-1" d="M857.67,49.06v-11.47h1.42v11.47h-1.42Z"/>
        <path class="cls-1" d="M860.68,46.73c0-1.35.8-2.14,2.11-2.53,1.08-.29,2.59-.47,3.86-.65-.04-1.37-.63-2.02-2.12-2.02-1.04,0-1.88.45-2.19,1.51l-1.35-.41c.41-1.51,1.61-2.42,3.55-2.42,1.55,0,2.72.56,3.22,1.68.24.53.28,1.16.28,1.84v5.32h-1.26v-1.34c-.69,1.05-1.75,1.58-3.19,1.58-1.93,0-2.92-1.18-2.92-2.56ZM866.49,46.13c.12-.41.14-.96.14-1.35-1.21.16-2.37.29-3.21.53-.71.22-1.34.61-1.34,1.42,0,.71.5,1.39,1.73,1.39,1.53,0,2.47-.92,2.68-1.98Z"/>
        <path class="cls-1" d="M872.67,49.06v-11.47h4.53c.22,0,.55.02.84.06,1.86.29,2.84,1.73,2.84,3.55s-.99,3.27-2.84,3.55c-.29.05-.63.06-.84.06h-3.11v4.24h-1.42ZM874.09,43.47h3.07c.2,0,.48-.02.72-.07,1.1-.25,1.56-1.24,1.56-2.2s-.46-1.95-1.56-2.2c-.24-.06-.52-.07-.72-.07h-3.07v4.54Z"/>
        <path class="cls-1" d="M882.15,49.06v-8.6h1.27v1.36c.19-.33.45-.63.73-.84.66-.53,1.67-.69,2.44-.53v1.33c-.6-.15-1.37-.11-1.97.33-.84.6-1.04,1.61-1.04,2.63v4.32h-1.43Z"/>
        <path class="cls-1" d="M887.15,44.75c0-2.7,1.62-4.53,4.14-4.53s4.15,1.87,4.15,4.53-1.59,4.55-4.15,4.55-4.14-1.88-4.14-4.55ZM893.93,44.75c0-1.94-.88-3.19-2.64-3.19s-2.64,1.31-2.64,3.19.9,3.2,2.64,3.2,2.64-1.31,2.64-3.2Z"/>
        <path class="cls-1" d="M898.88,49.06l-3.12-8.6h1.43l2.41,6.79,2.41-6.79h1.44l-3.12,8.6h-1.45Z"/>
        <path class="cls-1" d="M904.73,38.93v-1.47h1.42v1.47h-1.42ZM904.73,49.06v-8.6h1.42v8.6h-1.42Z"/>
        <path class="cls-1" d="M908.21,49.06v-8.6h1.27v1.11c.64-.85,1.63-1.33,2.87-1.33,2.77,0,3.43,2.44,3.43,4.07v4.76h-1.43v-4.31c0-1.62-.52-3.17-2.33-3.17-1.43,0-2.37.96-2.37,2.95v4.53h-1.43Z"/>
        <path class="cls-1" d="M916.97,44.76c.02-2.68,1.53-4.54,4.12-4.54,1.81,0,3.21.96,3.66,2.5l-1.4.42c-.37-1-1.23-1.58-2.28-1.58-1.77,0-2.58,1.33-2.6,3.19.02,1.92.88,3.19,2.6,3.19,1.12,0,1.86-.53,2.25-1.51l1.43.37c-.61,1.61-1.9,2.48-3.68,2.48-2.62,0-4.08-1.9-4.1-4.54Z"/>
        <path class="cls-1" d="M925.99,38.93v-1.47h1.42v1.47h-1.42ZM925.99,49.06v-8.6h1.42v8.6h-1.42Z"/>
        <path class="cls-1" d="M929,46.73c0-1.35.8-2.14,2.11-2.53,1.08-.29,2.59-.47,3.86-.65-.04-1.37-.63-2.02-2.12-2.02-1.04,0-1.88.45-2.19,1.51l-1.35-.41c.41-1.51,1.61-2.42,3.55-2.42,1.55,0,2.72.56,3.22,1.68.24.53.28,1.16.28,1.84v5.32h-1.26v-1.34c-.69,1.05-1.75,1.58-3.19,1.58-1.93,0-2.92-1.18-2.92-2.56ZM934.81,46.13c.12-.41.14-.96.14-1.35-1.21.16-2.37.29-3.21.53-.71.22-1.34.61-1.34,1.42,0,.71.5,1.39,1.73,1.39,1.53,0,2.47-.92,2.68-1.98Z"/>
        <path class="cls-1" d="M835.83,61.19c0-2.58,1.46-4.53,3.85-4.53,1.08,0,1.93.37,2.54,1.02v-3.65h1.43v11.47h-1.27v-.97c-.63.76-1.53,1.21-2.69,1.21-2.41,0-3.86-1.97-3.86-4.55ZM842.38,61.19c0-1.9-.8-3.23-2.48-3.23s-2.56,1.42-2.56,3.23.83,3.25,2.53,3.25,2.52-1.36,2.52-3.25Z"/>
        <path class="cls-1" d="M845.08,61.26c0-2.82,1.64-4.6,4.14-4.6s4.1,1.88,3.97,4.94h-6.6c.11,1.78,1.04,2.8,2.62,2.8,1.13,0,1.99-.53,2.47-1.51l1.36.47c-.68,1.52-2.1,2.39-3.77,2.39-2.54,0-4.21-1.79-4.21-4.48ZM846.62,60.46h5.1c-.18-1.69-1-2.53-2.45-2.53-1.54,0-2.44.89-2.64,2.53Z"/>
        <path class="cls-1" d="M854.8,65.5v-11.47h1.42v11.47h-1.42Z"/>
        <path class="cls-1" d="M861.16,65.5v-11.47h1.43l5.98,8.96v-8.96h1.43v11.47h-1.43l-5.98-8.97v8.97h-1.43Z"/>
        <path class="cls-1" d="M871.44,61.26c0-2.82,1.64-4.6,4.14-4.6s4.1,1.88,3.97,4.94h-6.6c.11,1.78,1.04,2.8,2.62,2.8,1.13,0,1.99-.53,2.47-1.51l1.36.47c-.68,1.52-2.1,2.39-3.77,2.39-2.54,0-4.21-1.79-4.21-4.48ZM872.99,60.46h5.1c-.18-1.69-1-2.53-2.45-2.53-1.54,0-2.44.89-2.64,2.53Z"/>
        <path class="cls-1" d="M880.85,61.65v-4.76h1.43v4.31c0,1.62.52,3.17,2.33,3.17,1.43,0,2.37-.96,2.37-2.95v-4.53h1.43v8.6h-1.27v-1.11c-.64.85-1.62,1.33-2.87,1.33-2.77,0-3.43-2.44-3.43-4.07Z"/>
        <path class="cls-1" d="M889.84,61.19c0-2.58,1.46-4.53,3.85-4.53,1.17,0,2.07.45,2.7,1.2v-.96h1.27v12.43h-1.43v-4.62c-.61.65-1.47,1.04-2.53,1.04-2.41,0-3.86-1.97-3.86-4.55ZM896.39,61.19c0-1.9-.8-3.23-2.48-3.23s-2.56,1.42-2.56,3.23.83,3.25,2.53,3.25,2.52-1.36,2.52-3.25Z"/>
        <path class="cls-1" d="M899.41,61.65v-4.76h1.43v4.31c0,1.62.52,3.17,2.33,3.17,1.43,0,2.37-.96,2.37-2.95v-4.53h1.43v8.6h-1.27v-1.11c-.64.85-1.62,1.33-2.87,1.33-2.77,0-3.43-2.44-3.43-4.07Z"/>
        <path class="cls-1" d="M908.4,61.26c0-2.82,1.64-4.6,4.14-4.6s4.1,1.88,3.97,4.94h-6.6c.11,1.78,1.04,2.8,2.62,2.8,1.13,0,1.99-.53,2.47-1.51l1.36.47c-.68,1.52-2.1,2.39-3.77,2.39-2.54,0-4.21-1.79-4.21-4.48ZM909.94,60.46h5.1c-.18-1.69-1-2.53-2.45-2.53-1.54,0-2.44.89-2.64,2.53ZM913.18,52.96h1.15l-1.04,2.63h-1.15l1.04-2.63Z"/>
        <path class="cls-1" d="M917.72,65.5v-8.6h1.27v1.11c.64-.85,1.63-1.33,2.87-1.33,2.77,0,3.43,2.44,3.43,4.07v4.76h-1.43v-4.31c0-1.62-.52-3.17-2.33-3.17-1.43,0-2.37.96-2.37,2.95v4.53h-1.43Z"/>
      </g>
      <g>
        <polygon class="cls-1" points="772.74 43.76 772.37 44.82 771.3 45.15 772.36 45.52 772.69 46.59 773.06 45.53 774.13 45.2 773.07 44.83 772.74 43.76"/>
        <polygon class="cls-1" points="772.77 39.5 772.4 40.56 771.33 40.88 772.39 41.25 772.72 42.32 773.09 41.26 774.16 40.94 773.1 40.57 772.77 39.5"/>
        <polygon class="cls-1" points="773.82 35.54 773.45 36.6 772.38 36.93 773.44 37.3 773.77 38.37 774.14 37.31 775.21 36.98 774.15 36.61 773.82 35.54"/>
        <polygon class="cls-1" points="775.29 31.74 774.92 32.8 773.85 33.12 774.91 33.49 775.24 34.56 775.6 33.5 776.67 33.17 775.61 32.81 775.29 31.74"/>
        <polygon class="cls-1" points="778.04 28.63 777.67 29.69 776.6 30.01 777.66 30.38 777.98 31.45 778.35 30.39 779.42 30.07 778.36 29.7 778.04 28.63"/>
        <polygon class="cls-1" points="781.22 26.24 780.85 27.3 779.78 27.62 780.84 27.99 781.17 29.06 781.54 28 782.61 27.68 781.55 27.31 781.22 26.24"/>
        <polygon class="cls-1" points="784.67 24.57 784.3 25.63 783.23 25.95 784.29 26.32 784.61 27.39 784.98 26.33 786.05 26 784.99 25.64 784.67 24.57"/>
        <polygon class="cls-1" points="788.78 23.51 788.41 24.57 787.34 24.9 788.4 25.27 788.73 26.34 789.1 25.28 790.17 24.95 789.1 24.58 788.78 23.51"/>
        <polygon class="cls-1" points="808.93 43.76 808.6 44.83 807.54 45.2 808.61 45.53 808.98 46.59 809.3 45.52 810.36 45.15 809.29 44.82 808.93 43.76"/>
        <polygon class="cls-1" points="808.95 42.32 809.28 41.25 810.34 40.88 809.27 40.56 808.9 39.5 808.57 40.57 807.51 40.94 808.58 41.26 808.95 42.32"/>
        <polygon class="cls-1" points="807.9 38.37 808.22 37.3 809.28 36.93 808.21 36.6 807.85 35.54 807.52 36.61 806.46 36.98 807.53 37.31 807.9 38.37"/>
        <polygon class="cls-1" points="807.82 33.12 806.75 32.8 806.38 31.74 806.05 32.81 804.99 33.17 806.06 33.5 806.43 34.56 806.76 33.49 807.82 33.12"/>
        <polygon class="cls-1" points="804 29.69 803.63 28.63 803.31 29.7 802.24 30.07 803.31 30.39 803.68 31.45 804.01 30.38 805.07 30.01 804 29.69"/>
        <polygon class="cls-1" points="800.44 26.24 800.12 27.31 799.06 27.68 800.13 28 800.5 29.06 800.82 27.99 801.88 27.62 800.81 27.3 800.44 26.24"/>
        <polygon class="cls-1" points="797 24.57 796.67 25.64 795.61 26 796.68 26.33 797.05 27.39 797.38 26.32 798.44 25.95 797.37 25.63 797 24.57"/>
        <polygon class="cls-1" points="792.89 23.51 792.56 24.58 791.5 24.95 792.57 25.28 792.94 26.34 793.27 25.27 794.33 24.9 793.26 24.57 792.89 23.51"/>
        <path class="cls-1" d="M821.06,60.99l-4.31,2.11c-.06.03-1.46.73-1.76,2.01l-.03.14.13.06c.18.08.43.11.7.11.77,0,1.74-.24,1.88-.28l4.64-2.48c.45-.29.46-.93.21-1.36-.23-.39-.75-.7-1.47-.31Z"/>
        <path class="cls-1" d="M770.98,20.57c1.42-.8,2.92-.21,4.49.55l12.97-1.84c.67-.09,1.54-.14,2.4-.13h0c.76,0,1.53.04,2.11.12l14.44,2.04c1-.1,2-.46,2.98-1.41.12-.11.13-.29.03-.42-.1-.13-.27-.17-.41-.09-1.58.89-3.26.06-5.03-.81,0,0,0,0,0,0-1.37-.68-2.77-1.37-4.17-1.25.91-1.03,2.14-1.37,3.44-1.73,1.77-.49,3.6-.99,4.61-3.3.06-.15,0-.32-.13-.4-.14-.08-.32-.05-.42.08-1.12,1.43-2.99,1.3-4.96,1.17-1.52-.1-3.09-.2-4.34.44.44-1.3,1.46-2.09,2.51-2.91,1.45-1.13,2.95-2.29,3-4.81,0-.16-.11-.3-.27-.32-.16-.02-.31.08-.36.23-.49,1.75-2.26,2.35-4.14,2.98-1.45.49-2.93.99-3.84,2.07-.09-1.37.55-2.49,1.21-3.65.91-1.6,1.85-3.24.93-5.59-.06-.15-.22-.23-.38-.19-.16.04-.26.19-.24.35.22,1.8-1.19,3.04-2.68,4.34-1.15,1.01-2.33,2.04-2.75,3.38-.61-1.23-.45-2.51-.28-3.83.23-1.82.46-3.71-1.28-5.52-.11-.12-.29-.13-.42-.03-.13.1-.17.27-.09.41.89,1.58.06,3.26-.82,5.04-.68,1.37-1.37,2.77-1.25,4.17-1.03-.91-1.37-2.14-1.73-3.44-.49-1.77-.99-3.6-3.3-4.61-.15-.06-.32,0-.4.13-.08.14-.05.32.08.42,1.43,1.12,1.3,2.99,1.17,4.96-.1,1.52-.2,3.09.44,4.34-1.3-.44-2.09-1.46-2.91-2.51-1.13-1.45-2.29-2.95-4.81-3-.16,0-.3.11-.32.27-.02.16.08.31.23.36,1.75.49,2.35,2.26,2.98,4.14.49,1.45.99,2.93,2.07,3.84-1.37.09-2.49-.55-3.65-1.21-1.6-.91-3.25-1.85-5.59-.93-.15.06-.23.22-.19.38.04.16.19.26.35.24,1.8-.22,3.04,1.19,4.34,2.68,1.01,1.15,2.04,2.33,3.38,2.75-1.23.61-2.51.45-3.83.28-1.82-.23-3.71-.46-5.52,1.28-.12.11-.13.29-.03.42.1.13.27.17.41.09Z"/>
        <path class="cls-1" d="M779.95,72.21l-.2-.08s0,0,0,0l-3.3-1.38s-1.02-.39-1.46-.45c-1.2-.16-1.69.09-2.24.4-.26.15.01.31.01.31,0,0,4.1,1.74,4.27,1.77.26.08.52.15.7.17,1.21.14,1.69-.12,2.23-.44.26-.15-.02-.31-.02-.31Z"/>
        <path class="cls-1" d="M772.29,68.9l-.2-.08s0,0,0,0l-3.3-1.38s-1.02-.39-1.46-.45c-1.2-.16-1.69.09-2.24.4-.26.15.01.31.01.31,0,0,4.1,1.74,4.27,1.77.26.08.52.15.7.17,1.21.14,1.69-.12,2.23-.44.26-.15-.02-.31-.02-.31Z"/>
        <path class="cls-1" d="M787.75,75.22l-.2-.08s0,0,0,0l-2.11-.88-.2-.08-.2-.08-.78-.33s-1.02-.39-1.46-.45c-1.21-.16-1.69.09-2.24.4-.26.15.01.31.01.31,0,0,4.1,1.74,4.27,1.77.1.03.19.06.29.08.08.02.15.04.22.05.07.01.14.03.19.03,0,0,.01,0,.02,0,1.19.14,1.67-.13,2.21-.44.26-.15-.02-.31-.02-.31Z"/>
        <path class="cls-1" d="M766.57,65.3l.13-.06-.03-.14c-.29-1.28-1.7-1.98-1.76-2.01l-4.31-2.11c-.72-.38-1.24-.07-1.47.31-.25.42-.24,1.06.21,1.36l4.64,2.48c.14.04,1.1.28,1.88.28.27,0,.52-.03.7-.11Z"/>
        <path class="cls-1" d="M806.66,70.31c-.44.06-1.46.45-1.46.45l-3.3,1.38s0,0,0,0l-.2.08s-.28.16-.02.31c.55.31,1.02.58,2.23.44.17-.02.44-.09.7-.17.16-.03,4.27-1.77,4.27-1.77,0,0,.28-.16.01-.31-.55-.31-1.03-.56-2.24-.4Z"/>
        <path class="cls-1" d="M814.33,66.99c-.44.06-1.46.45-1.46.45l-3.3,1.38s0,0,0,0l-.2.08s-.28.16-.02.31c.55.31,1.02.58,2.23.44.17-.02.44-.09.7-.17.16-.03,4.27-1.77,4.27-1.77,0,0,.28-.16.01-.31-.55-.31-1.03-.56-2.24-.4Z"/>
        <path class="cls-1" d="M798.87,73.31c-.44.06-1.46.45-1.46.45l-.78.33-.2.08-.2.08-2.11.88s0,0,0,0l-.2.08s-.28.16-.02.31c.54.31,1.02.58,2.21.44,0,0,.01,0,.02,0,.06,0,.12-.02.19-.03.07-.02.14-.03.22-.05.09-.02.19-.05.29-.08.16-.03,4.27-1.77,4.27-1.77,0,0,.28-.16.01-.31-.55-.31-1.03-.56-2.24-.4Z"/>
        <path class="cls-1" d="M823.31,25.5c-.4-.59-1.02-.97-1.75-1.08l-28.62-4.04c-.58-.08-1.35-.12-2.11-.12-.76,0-1.53.04-2.11.12l-28.62,4.04c-.73.1-1.35.49-1.75,1.08-.4.59-.52,1.31-.34,2.02l7.34,29.25,1.64,6.53c.32,1.29,1.54,2.7,2.76,3.21l13.76,5.78,1.65.69.19.08.19.08,1.1.46,2.05.86c.54.23,1.23.35,1.93.37h.01s.03,0,.05,0c.05,0,.09,0,.14,0h0s.09,0,.14,0c.02,0,.03,0,.05,0h0c.7-.02,1.38-.14,1.93-.37l2.05-.86,1.1-.46.19-.08.19-.08,1.65-.69,13.76-5.78c1.22-.51,2.44-1.92,2.76-3.21l1.64-6.53,7.34-29.25c.18-.71.06-1.43-.34-2.02ZM774.57,66.17l-.19-.09s0,0,0,0l-3.27-1.44s-.98-.48-1.33-.75c-.95-.76-1.09-1.29-1.25-1.9-.08-.29.23-.2.23-.2,0,0,4.09,1.78,4.22,1.88.23.13.47.28.6.39.94.78,1.07,1.31,1.22,1.92.07.29-.23.2-.23.2ZM782.12,69.76l-.19-.09s0,0,0,0l-3.27-1.44s-.99-.48-1.33-.75c-.95-.76-1.09-1.29-1.25-1.9-.08-.29.23-.2.23-.2,0,0,4.09,1.78,4.22,1.87.23.13.47.28.6.39.94.78,1.07,1.31,1.22,1.92.07.29-.23.2-.23.2ZM785.48,66.3c-.79-.57-1.9-1.04-3.11-1.51,0,0-.28-.13-.36-.18-1.4-.76-2.62-1.73-3.36-3.2-.29-.57-.54-1.17-.8-1.76-.22-.51-.44-1.01-.69-1.51-.29-.58-.41-1.17-.44-1.77-.02-.5.02-1,.1-1.51.12-.78.22-1.56.3-2.35.04-.5,0-1.01.02-1.51.02-.37.25-.52.57-.34.23.13.43.34.58.56.33.49.36,1.07.38,1.65.01.3.03.6.04.9h0v1.67c-1.13.47.45,2.81.76,3.22.26.39,1.24,1.58,1.48,1.77.23.25.41.43.47.51.05.05.12.07.18.06.05,0,.09-.02.13-.06.09-.08.09-.22,0-.31-1.52-1.56-2.32-2.71-2.72-3.47-.11-.21-.21-.42-.25-.61-.16-.67.41-.96,1.04-.55.02.02.05.03.07.05.14.1.31.21.49.38.76.73,1.62,1.33,2.39,2.05.55.52,1.05.97,1.77,1.3,0,0,1.08.36,1.6.5.96.26,1.87.59,2.73,1.04.16.13.52.43.56.44-.58.58-1.17,1.45-1.73,2.55-.46.91-.88,1.94-1.25,3.06-.07-.15-.15-.28-.23-.39,0-.01-.02-.02-.03-.03-.19-.23-.43-.45-.71-.65ZM787.76,49.88c-.23.12-1.32.59-1.84-.62l-.88-1.7c-.12-.23-.42-.37-.68-.31l-3.61.88c-.25.06-.51.02-.57-.09-.06-.11.05-.33.26-.49l9.52-7.24v21.01c-.15.11-.3.24-.47.4v-12.75l-1.73.92ZM784.59,59.33c-.03.11-1.21-.83-1.66-1.27-.04-.04-.12-2.68-.16-3.82,0-.28.19-.42.43-.27.22.14.47.34.56.57.19.49.35,1.01.39,1.52.06.76.08,1.67.24,2.5.05.27.12.53.2.78ZM782.58,57.75c-.51-.46-1.09-.92-1.53-1.35-.08-.07-.06-.26-.07-.37-.05-1.22-.08-2.45-.12-3.67-.01-.41.19-.54.55-.36.35.18.6.48.68.85.13.59.22,1.18.27,1.78.08.98.16,2.07.22,3.12ZM780.46,53.34c.06.87.15,1.82.19,2.74-.49-.35-.77-.57-1.57-.69,0-.03-.11-3.24-.14-3.89-.02-.48.24-.66.65-.41.22.14.4.37.54.59.31.51.28,1.1.32,1.66ZM795,72.93l-.74.31c-.76-5.69-1.63-8.25-1.88-8.25-.14,0,.41.76,1.43,8.44l-.86.36c-.54.23-1.22.35-1.92.37.01-1.26.01-2.44,0-2.92,0-.12-.09-.21-.21-.22-.12,0-.21.1-.21.22,0,.47,0,1.65,0,2.92-.69-.02-1.38-.14-1.92-.37l-.86-.36c1.02-7.68,1.57-8.44,1.43-8.44-.25,0-1.12,2.56-1.88,8.25l-.74-.31-1.02-.43c.03-.19.06-.38.1-.57.02-.12.04-.23.06-.35.01-.07.03-.15.04-.22.02-.12.05-.24.07-.36.01-.07.03-.13.04-.2.02-.12.05-.23.08-.35.01-.07.03-.14.05-.21.02-.11.05-.22.08-.32.02-.08.04-.15.05-.23.02-.1.05-.19.07-.28.02-.09.04-.18.07-.27.02-.08.04-.16.06-.24.03-.1.06-.21.09-.31.02-.06.03-.12.05-.18.03-.12.07-.24.11-.36.4-1.31.87-2.51,1.4-3.55.61-1.2,1.19-2,1.69-2.49.05-.05.09-.09.14-.13.03-.02.05-.05.08-.07.34-.29.63-.42.87-.44.23.02.53.15.87.44.03.02.05.05.08.07.05.04.09.08.14.13.5.49,1.08,1.29,1.69,2.49.53,1.04,1,2.24,1.4,3.55.04.12.07.24.11.36.02.06.04.12.05.18.03.1.06.21.09.31.02.08.04.16.06.24.02.09.05.18.07.27.02.09.05.19.07.28.02.08.04.15.05.23.03.11.05.21.08.32.01.07.03.14.05.21.03.12.05.23.08.35.01.07.03.13.04.2.02.12.05.24.07.36.01.07.03.15.04.22.02.12.04.23.06.35.03.19.06.38.09.57l-1.02.43ZM801.49,48.03c-.06.11-.32.15-.57.09l-3.61-.88c-.25-.06-.56.08-.68.31l-.88,1.7c-.53,1.21-1.61.74-1.84.62l-1.73-.92v12.75c-.16-.16-.32-.29-.48-.4v-21.01s9.53,7.24,9.53,7.24c.21.16.32.38.26.49ZM801.53,51.68c.14-.22.32-.45.54-.59.41-.26.68-.08.65.41-.03.65-.13,3.86-.14,3.89-.8.13-1.08.34-1.57.69.04-.92.13-1.87.19-2.74.04-.57,0-1.16.32-1.66ZM800.8,52.36c-.04,1.22-.08,2.45-.12,3.67,0,.11,0,.3-.07.37-.44.42-1.02.88-1.53,1.35.05-1.05.14-2.14.22-3.12.05-.6.15-1.19.27-1.78.08-.37.33-.67.68-.85.37-.18.57-.05.55.36ZM798.89,54.24c-.04,1.14-.12,3.78-.16,3.82-.44.45-1.63,1.39-1.66,1.27.08-.24.15-.51.2-.78.16-.83.19-1.74.24-2.5.04-.52.2-1.04.39-1.52.09-.23.34-.43.56-.57.24-.15.44-.01.43.27ZM796.19,66.3c-.28.2-.52.42-.71.65-.01.01-.02.02-.03.03-.09.11-.17.25-.23.39-.37-1.12-.78-2.15-1.25-3.06-.56-1.1-1.15-1.97-1.73-2.55.04-.01.4-.31.56-.44.86-.45,1.78-.79,2.73-1.04.52-.14,1.6-.49,1.6-.5.72-.32,1.22-.78,1.77-1.3.77-.72,1.63-1.32,2.39-2.05.17-.17.34-.28.49-.38.02-.02.05-.03.07-.05.63-.41,1.2-.12,1.04.55-.05.19-.14.39-.25.61-.4.76-1.2,1.9-2.72,3.47-.08.09-.08.23,0,.31.04.04.08.06.13.06.06,0,.13-.02.18-.06.07-.07.24-.25.47-.51.25-.2,1.22-1.39,1.48-1.77.31-.41,1.88-2.76.75-3.22v-1.67s0,0,0,0c.01-.3.03-.6.04-.9.02-.57.05-1.15.38-1.65.15-.22.36-.43.58-.56.32-.18.56-.03.57.34.02.5-.02,1.01.02,1.51.07.79.18,1.57.3,2.35.08.51.12,1.02.1,1.51-.03.6-.15,1.18-.44,1.77-.25.49-.47,1-.69,1.51-.26.59-.51,1.18-.8,1.76-.74,1.47-1.96,2.44-3.36,3.2-.08.05-.36.18-.36.18-1.21.47-2.32.94-3.11,1.51ZM804.33,67.48c-.35.28-1.33.75-1.33.75l-3.27,1.44s0,0,0,0l-.19.09s-.3.1-.23-.2c.15-.61.28-1.14,1.22-1.92.13-.11.37-.25.6-.39.14-.1,4.22-1.87,4.22-1.87,0,0,.31-.09.23.2-.16.61-.3,1.14-1.25,1.9ZM811.88,63.89c-.35.28-1.33.75-1.33.75l-3.27,1.44s0,0,0,0l-.19.09s-.3.09-.23-.2c.15-.61.28-1.14,1.22-1.92.13-.11.37-.26.6-.39.13-.1,4.22-1.88,4.22-1.88,0,0,.31-.09.23.2-.16.61-.3,1.14-1.25,1.9ZM822.3,27.18l-7.43,29.48-23.16-18.16v-4.15h.07s.53,1.53.53,1.53c.08.18.29.26.47.19.18-.08.26-.29.19-.47l-.52-1.01,2.57,1.74c.17.1.39.04.49-.13.1-.17.04-.39-.13-.49l-1.28-.62,2.96,1.05c.3.08.62-.1.71-.4.08-.3-.1-.62-.4-.71l-2.21-.45,1.39.1c.31,0,.57-.26.57-.57s-.26-.57-.57-.57l-3.34.24,2.35-.84c.27-.27.27-.7,0-.96l-4.24-2.63c-.13-.13-.29-.18-.46-.19h0s-.01,0-.02,0c0,0,0,0-.01,0,0,0,0,0-.01,0,0,0-.01,0-.02,0h0c-.17,0-.34.07-.46.19l-4.24,2.63c-.26.26-.26.69,0,.96l2.35.84-3.34-.24c-.31,0-.57.26-.57.57s.26.57.57.57l1.39-.1-2.21.45c-.3.08-.48.4-.4.71.09.3.4.48.71.4l2.96-1.05-1.28.62c-.17.1-.23.32-.13.49.1.17.32.23.49.13l2.57-1.74-.52,1.01c-.08.18,0,.39.19.47.18.08.39,0,.47-.19l.53-1.53h.07s0,4.14,0,4.14l-23.16,18.16-7.43-29.48c-.08-.33-.03-.65.14-.91.18-.26.46-.43.79-.48l28.62-4.04c.52-.07,1.22-.11,1.92-.1.7,0,1.4.03,1.92.1l28.62,4.04c.34.05.62.22.79.48.17.26.22.58.14.91Z"/>
        <path class="cls-1" d="M790.62,69.73c0,.12.09.21.21.22.12,0,.21-.1.21-.22,0-1.15.01-6.44-.21-6.98-.22.54-.21,5.83-.21,6.98Z"/>
      </g>
    </g>
    <g>
      <path class="cls-1" d="M621.65,68.65c-1.5,1.36-3.5,2.2-5.72,2.2s-4.28-.83-5.8-2.2h-6.55c2.32,4.3,6.91,7.23,12.34,7.23s9.93-2.93,12.24-7.23h-6.52Z"/>
      <path class="cls-1" d="M671.41,37.74c-1.5-1.36-3.5-2.2-5.72-2.2s-4.28.83-5.8,2.2h-6.55c2.32-4.3,6.91-7.23,12.34-7.23s9.93,2.93,12.24,7.23h-6.52Z"/>
      <path class="cls-1" d="M529.04,40.24c3.6,0,6.34.95,8.24,2.84,1.9,1.9,2.84,4.79,2.84,8.68v14.39h-5.01v-14.1c0-1.53-.22-2.84-.66-3.94-.44-1.1-1.11-1.95-2.02-2.53-.91-.58-2.06-.87-3.45-.87s-2.63.3-3.52.9c-.89.6-1.54,1.45-1.94,2.55-.41,1.1-.61,2.4-.61,3.89v14.1h-5.01v-14.39c0-3.95.96-6.86,2.89-8.73,1.93-1.87,4.68-2.8,8.24-2.8"/>
      <path class="cls-1" d="M577.7,66.15c-3.6,0-6.34-.95-8.24-2.84-1.9-1.9-2.84-4.79-2.84-8.68v-14.39h5.01v14.1c0,1.52.22,2.84.66,3.94.44,1.1,1.11,1.95,2.02,2.53.91.58,2.06.87,3.45.87s2.63-.3,3.52-.9c.89-.6,1.54-1.45,1.94-2.55.41-1.1.61-2.4.61-3.89v-14.1h5.01v14.39c0,3.95-.96,6.86-2.89,8.73-1.93,1.87-4.68,2.8-8.24,2.8"/>
      <path class="cls-1" d="M614.26,46.21c-.94-1.97-2.34-3.51-4.18-4.64-1.86-1.12-4.11-1.68-6.75-1.68s-4.91.55-6.77,1.68c-1.84,1.13-3.26,2.66-4.23,4.61-.96,1.97-1.47,4.27-1.47,6.89s.48,4.87,1.45,6.86c.97,1.97,2.37,3.49,4.2,4.59,1.86,1.08,4.11,1.63,6.77,1.63s4.94-.55,6.77-1.63c1.84-1.1,3.21-2.62,4.18-4.59.96-2,1.42-4.25,1.42-6.82s-.46-4.94-1.4-6.91M609.94,57.37c-.53,1.33-1.33,2.37-2.41,3.15-1.1.78-2.5,1.17-4.25,1.17s-3.15-.39-4.25-1.17c-1.1-.78-1.91-1.81-2.41-3.12-.48-1.29-.74-2.73-.74-4.32s.25-2.98.74-4.27c.51-1.31,1.31-2.34,2.41-3.15,1.1-.8,2.52-1.19,4.25-1.19s3.15.39,4.25,1.19c1.08.8,1.88,1.84,2.41,3.15.51,1.29.76,2.71.76,4.27s-.25,2.98-.76,4.29"/>
      <path class="cls-1" d="M628.44,66.15c-3.6,0-6.34-.95-8.24-2.84-1.9-1.9-2.84-4.79-2.84-8.68v-14.39h5.01v14.1c0,1.52.22,2.84.66,3.94.44,1.1,1.11,1.95,2.02,2.53.91.58,2.06.87,3.45.87s2.63-.3,3.52-.9c.89-.6,1.54-1.45,1.94-2.55.41-1.1.61-2.4.61-3.89v-14.1h5.01v14.39c0,3.95-.96,6.86-2.89,8.73-1.93,1.87-4.68,2.8-8.24,2.8"/>
      <path class="cls-1" d="M553.95,66.15c-2.69,0-4.94-.55-6.76-1.65-1.82-1.1-3.19-2.63-4.11-4.59-.92-1.96-1.39-4.22-1.39-6.78s.48-4.88,1.44-6.85c.95-1.98,2.35-3.53,4.18-4.67,1.83-1.13,4.04-1.7,6.64-1.7,1.98,0,3.69.37,5.15,1.09,1.46.73,2.67,1.71,3.62,2.94.96,1.23,1.66,2.6,2.11,4.11.23.76.39,2.04.49,3.34.14,1.83-1.31,3.4-3.15,3.4h-15.42c.1,1.3.43,2.48,1,3.55.57,1.07,1.37,1.92,2.41,2.55,1.04.63,2.32.95,3.84.95.84,0,1.66-.1,2.45-.32.79-.21,1.51-.55,2.14-1.02.33-.25.62-.54.85-.86.43-.61,1.12-.96,1.86-.96,1.98,0,3.08,2.33,1.8,3.84-.12.14-.25.28-.38.41-1.08,1.12-2.4,1.94-3.94,2.46-1.54.52-3.15.78-4.84.78M546.85,50.79h13.61c-.03-1.26-.33-2.39-.87-3.38-.55-.99-1.31-1.76-2.28-2.33-.97-.57-2.14-.85-3.5-.85-1.49,0-2.73.31-3.72.92-.99.62-1.75,1.42-2.29,2.41-.54.99-.85,2.07-.95,3.23"/>
      <path class="cls-1" d="M678.36,40.24c3.6,0,6.34.95,8.24,2.84,1.9,1.9,2.84,4.79,2.84,8.68v14.39h-5.01v-14.1c0-1.53-.22-2.84-.66-3.94-.44-1.1-1.11-1.95-2.02-2.53-.91-.58-2.06-.87-3.45-.87s-2.63.3-3.52.9c-.89.6-1.54,1.45-1.94,2.55-.41,1.1-.61,2.4-.61,3.89v14.1h-5.01v-14.39c0-3.95.96-6.86,2.89-8.73,1.93-1.87,4.68-2.8,8.24-2.8"/>
      <path class="cls-1" d="M652.5,66.15c2.69,0,4.94-.55,6.76-1.65,1.82-1.1,3.19-2.63,4.11-4.59.92-1.96,1.39-4.22,1.39-6.78s-.48-4.88-1.44-6.85c-.95-1.98-2.35-3.53-4.18-4.67-1.83-1.13-4.04-1.7-6.64-1.7-1.98,0-3.69.37-5.15,1.09-1.46.73-2.67,1.71-3.62,2.94-.96,1.23-1.66,2.6-2.11,4.11-.23.76-.39,2.04-.49,3.34-.14,1.83,1.31,3.4,3.15,3.4h15.42c-.1,1.3-.43,2.48-1,3.55-.57,1.07-1.37,1.92-2.41,2.55-1.04.63-2.32.95-3.84.95-.84,0-1.66-.1-2.45-.32-.79-.21-1.51-.55-2.14-1.02-.33-.25-.62-.54-.85-.86-.43-.61-1.12-.96-1.86-.96-1.98,0-3.08,2.33-1.8,3.84.12.14.25.28.38.41,1.08,1.12,2.4,1.94,3.94,2.46,1.54.52,3.15.78,4.84.78M659.6,50.79h-13.61c.03-1.26.33-2.39.87-3.38.55-.99,1.31-1.76,2.28-2.33.97-.57,2.14-.85,3.5-.85,1.49,0,2.73.31,3.72.92.99.62,1.75,1.42,2.29,2.41.54.99.85,2.07.95,3.23"/>
      <g>
        <path class="cls-1" d="M520.33,35.21v-8.54h3.37c.17,0,.41.01.63.05,1.38.21,2.11,1.29,2.11,2.64s-.74,2.43-2.11,2.64c-.22.04-.47.05-.63.05h-2.32v3.15h-1.06ZM521.38,31.06h2.28c.15,0,.36-.01.53-.05.82-.18,1.16-.93,1.16-1.64s-.34-1.45-1.16-1.64c-.18-.04-.39-.05-.53-.05h-2.28v3.38Z"/>
        <path class="cls-1" d="M527.62,35.21v-6.4h.94v1.01c.14-.25.33-.47.55-.62.49-.4,1.25-.52,1.81-.39v.99c-.44-.11-1.02-.08-1.46.24-.62.44-.78,1.2-.78,1.96v3.21h-1.06Z"/>
        <path class="cls-1" d="M531.58,32c0-2.01,1.2-3.37,3.08-3.37s3.09,1.39,3.09,3.37-1.19,3.39-3.09,3.39-3.08-1.4-3.08-3.39ZM536.63,32c0-1.44-.66-2.37-1.97-2.37s-1.96.97-1.96,2.37.67,2.38,1.96,2.38,1.97-.97,1.97-2.38Z"/>
        <path class="cls-1" d="M540.55,35.21l-2.32-6.4h1.07l1.8,5.06,1.79-5.06h1.07l-2.32,6.4h-1.08Z"/>
        <path class="cls-1" d="M545.13,27.68v-1.09h1.06v1.09h-1.06ZM545.13,35.21v-6.4h1.06v6.4h-1.06Z"/>
        <path class="cls-1" d="M547.96,35.21v-6.4h.95v.82c.47-.63,1.21-.99,2.13-.99,2.06,0,2.55,1.81,2.55,3.03v3.54h-1.07v-3.21c0-1.2-.39-2.36-1.74-2.36-1.06,0-1.76.71-1.76,2.19v3.37h-1.07Z"/>
        <path class="cls-1" d="M554.72,32.01c.02-2,1.14-3.38,3.07-3.38,1.35,0,2.39.71,2.73,1.86l-1.04.31c-.27-.74-.92-1.17-1.7-1.17-1.32,0-1.92.99-1.93,2.38.01,1.43.66,2.38,1.93,2.38.83,0,1.38-.39,1.67-1.12l1.07.28c-.45,1.2-1.42,1.84-2.74,1.84-1.95,0-3.04-1.42-3.05-3.38Z"/>
        <path class="cls-1" d="M561.67,27.68v-1.09h1.06v1.09h-1.06ZM561.67,35.21v-6.4h1.06v6.4h-1.06Z"/>
        <path class="cls-1" d="M564.14,33.48c0-1.01.6-1.6,1.57-1.88.8-.21,1.93-.35,2.88-.48-.03-1.02-.47-1.51-1.58-1.51-.78,0-1.4.34-1.63,1.12l-1-.3c.3-1.12,1.2-1.8,2.64-1.8,1.16,0,2.03.42,2.4,1.25.18.4.21.87.21,1.37v3.96h-.94v-1c-.51.78-1.3,1.17-2.37,1.17-1.44,0-2.18-.88-2.18-1.91ZM568.47,33.03c.09-.31.1-.72.11-1.01-.9.12-1.77.22-2.39.4-.53.17-1,.46-1,1.06,0,.53.37,1.03,1.29,1.03,1.14,0,1.84-.68,1.99-1.48Z"/>
        <path class="cls-1" d="M573.18,32c0-1.92,1.09-3.37,2.86-3.37.8,0,1.44.28,1.89.76v-2.72h1.06v8.54h-.94v-.72c-.47.56-1.14.9-2,.9-1.79,0-2.87-1.46-2.87-3.39ZM578.06,32c0-1.42-.59-2.41-1.84-2.41s-1.91,1.06-1.91,2.41.62,2.42,1.88,2.42,1.87-1.01,1.87-2.42Z"/>
        <path class="cls-1" d="M580.3,32.05c0-2.1,1.22-3.42,3.08-3.42s3.05,1.4,2.96,3.68h-4.91c.08,1.33.77,2.08,1.95,2.08.84,0,1.48-.4,1.84-1.13l1.01.35c-.5,1.13-1.57,1.78-2.8,1.78-1.89,0-3.13-1.33-3.13-3.34ZM581.45,31.46h3.8c-.13-1.26-.74-1.88-1.83-1.88-1.14,0-1.81.66-1.97,1.88Z"/>
        <path class="cls-1" d="M587.78,35.21v-8.54h1.06v8.54h-1.06Z"/>
      </g>
    </g>
    <g>
      <path class="cls-1" d="M250.08,33.11c-1.22,0-2.27-.27-3.13-.8s-1.52-1.28-1.98-2.24c-.46-.96-.68-2.07-.68-3.33s.23-2.37.68-3.33c.46-.96,1.12-1.7,1.98-2.24.86-.54,1.9-.8,3.13-.8,1.41,0,2.58.36,3.51,1.07.93.71,1.57,1.67,1.93,2.88l-1.8.48c-.24-.86-.66-1.53-1.27-2.01-.61-.49-1.4-.73-2.37-.73-.87,0-1.59.2-2.17.59-.58.39-1.01.94-1.3,1.64-.29.7-.44,1.52-.44,2.46,0,.94.14,1.75.43,2.46.29.7.73,1.25,1.31,1.64.58.39,1.3.59,2.17.59.97,0,1.76-.25,2.37-.74.61-.49,1.03-1.16,1.27-2.01l1.8.48c-.36,1.21-1.01,2.17-1.93,2.88-.93.71-2.1,1.07-3.51,1.07Z"/>
      <path class="cls-1" d="M257.39,32.85v-12.24h4.95c.12,0,.27,0,.44.01.18,0,.34.03.5.06.68.11,1.25.34,1.71.7.46.36.8.81,1.02,1.35s.34,1.14.34,1.8-.11,1.27-.34,1.81c-.23.54-.57.99-1.02,1.35-.46.36-1.02.59-1.71.7-.16.02-.33.04-.5.05-.18.01-.33.02-.44.02h-3.17v4.39h-1.78ZM259.16,26.77h3.1c.11,0,.24,0,.38-.02.14-.01.27-.03.4-.06.36-.08.65-.24.88-.47.22-.23.38-.49.48-.79.1-.3.14-.6.14-.9s-.05-.6-.14-.9c-.1-.3-.25-.56-.48-.79-.22-.23-.51-.39-.88-.47-.12-.03-.26-.06-.4-.07s-.26-.02-.38-.02h-3.1v4.49Z"/>
      <path class="cls-1" d="M268.04,32.85v-12.24h7.82v1.67h-6.04v3.43h5.02v1.67h-5.02v3.78h6.04v1.67h-7.82Z"/>
      <path class="cls-1" d="M249.78,49.75c-1.22,0-2.23-.27-3.05-.82-.81-.54-1.42-1.29-1.83-2.25s-.61-2.06-.61-3.31.2-2.35.61-3.31c.41-.96,1.02-1.71,1.83-2.25s1.83-.82,3.05-.82c1.43,0,2.58.37,3.45,1.12s1.46,1.74,1.77,2.98l-.75.17c-.27-1.08-.78-1.95-1.53-2.59-.74-.64-1.73-.96-2.95-.96-1.05,0-1.92.24-2.61.72s-1.22,1.15-1.57,2-.53,1.83-.54,2.94c-.01,1.11.16,2.08.51,2.93s.88,1.52,1.58,2c.71.48,1.58.73,2.63.73,1.22,0,2.2-.32,2.95-.97.75-.65,1.25-1.51,1.53-2.58l.75.17c-.3,1.24-.89,2.23-1.77,2.98s-2.02,1.12-3.45,1.12Z"/>
      <path class="cls-1" d="M260.56,49.75c-.91,0-1.67-.21-2.29-.62-.62-.41-1.1-.99-1.42-1.72-.32-.73-.48-1.57-.48-2.53s.17-1.81.49-2.53c.33-.73.81-1.29,1.43-1.69s1.38-.6,2.27-.6,1.68.21,2.3.62c.62.41,1.09.98,1.42,1.7s.48,1.56.48,2.51-.16,1.82-.48,2.55c-.32.73-.8,1.3-1.42,1.7-.63.41-1.39.61-2.29.61ZM260.56,49.04c1.16,0,2.02-.38,2.58-1.15.57-.77.85-1.77.85-3s-.29-2.25-.85-3-1.43-1.12-2.58-1.12c-.78,0-1.42.18-1.92.53-.51.35-.89.84-1.13,1.45-.25.62-.37,1.33-.37,2.13,0,1.25.29,2.25.87,3.01.58.76,1.43,1.14,2.56,1.14Z"/>
      <path class="cls-1" d="M266.62,49.5v-9.18h.66v1.87h.05v7.31h-.71ZM273.44,49.5v-4.86c0-.66-.07-1.22-.2-1.7-.13-.48-.33-.88-.59-1.19s-.58-.55-.95-.7c-.37-.15-.79-.23-1.27-.23-.56,0-1.04.1-1.43.29-.39.2-.71.46-.96.8-.24.34-.42.73-.54,1.17-.11.44-.17.91-.17,1.4l-.66.02c0-1.05.17-1.89.52-2.54s.8-1.11,1.37-1.41c.57-.29,1.19-.44,1.87-.44.46,0,.89.07,1.28.2.39.13.73.32,1.04.57.3.25.56.55.77.91.21.36.37.76.48,1.22s.16.96.16,1.5v5h-.71Z"/>
      <path class="cls-1" d="M279.71,49.74c-1.04,0-1.9-.22-2.58-.65s-1.11-1.03-1.28-1.8l.73-.14c.15.57.51,1.02,1.08,1.36.56.34,1.25.51,2.07.51s1.5-.18,1.99-.54c.49-.36.74-.84.74-1.45,0-.33-.07-.61-.22-.82s-.43-.41-.86-.58-1.06-.38-1.89-.6c-.87-.24-1.55-.47-2.04-.69-.49-.22-.83-.48-1.02-.76-.2-.28-.29-.62-.29-1.03,0-.49.14-.92.43-1.29s.69-.67,1.2-.88c.51-.21,1.1-.31,1.77-.31s1.28.11,1.82.33c.54.22.98.54,1.31.94.33.4.52.86.57,1.38l-.73.14c-.11-.64-.44-1.15-.98-1.52-.55-.37-1.23-.56-2.04-.56-.76-.01-1.39.14-1.87.47-.48.32-.73.75-.73,1.27,0,.29.08.54.25.74s.45.4.86.57c.41.17.97.35,1.7.53.92.23,1.63.47,2.15.71s.87.52,1.08.83.31.71.31,1.18c0,.83-.31,1.49-.93,1.96-.62.47-1.48.71-2.57.71Z"/>
      <path class="cls-1" d="M288.79,49.75c-.87,0-1.61-.2-2.24-.59-.63-.39-1.11-.95-1.45-1.67-.34-.73-.51-1.59-.51-2.58s.17-1.87.51-2.59.82-1.28,1.45-1.67c.63-.39,1.38-.58,2.25-.58s1.63.2,2.25.59c.62.4,1.1.97,1.43,1.73.33.75.5,1.66.5,2.73h-.76v-.24c-.03-1.32-.34-2.33-.93-3.04-.59-.71-1.42-1.06-2.49-1.06s-1.93.36-2.53,1.08c-.6.72-.9,1.74-.9,3.05s.3,2.32.9,3.05,1.45,1.08,2.53,1.08c.76,0,1.42-.18,2-.54.57-.36,1.03-.87,1.37-1.54l.59.34c-.37.78-.9,1.39-1.59,1.81-.69.43-1.48.64-2.37.64ZM285.05,45.11v-.71h7.48v.71h-7.48Z"/>
      <path class="cls-1" d="M293.48,53.58v-.73h.58c.36,0,.67-.1.94-.3.27-.2.4-.56.4-1.09v-11.13h.71v11.05c0,.78-.16,1.35-.48,1.69s-.85.52-1.59.52h-.56ZM295.4,38.35v-1.09h.71v1.09h-.71Z"/>
      <path class="cls-1" d="M302.36,49.75c-.91,0-1.67-.21-2.29-.62-.62-.41-1.1-.99-1.42-1.72-.32-.73-.48-1.57-.48-2.53s.17-1.81.49-2.53c.33-.73.81-1.29,1.43-1.69s1.38-.6,2.27-.6,1.68.21,2.3.62c.62.41,1.09.98,1.42,1.7s.48,1.56.48,2.51-.16,1.82-.48,2.55c-.32.73-.8,1.3-1.42,1.7-.63.41-1.39.61-2.29.61ZM302.36,49.04c1.16,0,2.02-.38,2.58-1.15.57-.77.85-1.77.85-3s-.29-2.25-.85-3-1.43-1.12-2.58-1.12c-.78,0-1.42.18-1.92.53-.51.35-.89.84-1.13,1.45-.25.62-.37,1.33-.37,2.13,0,1.25.29,2.25.87,3.01.58.76,1.43,1.14,2.56,1.14Z"/>
      <path class="cls-1" d="M311.83,49.5v-12.24h4.5c.12,0,.24,0,.37.01.12,0,.26.03.42.06.59.09,1.1.3,1.54.64.43.34.77.76,1,1.28.23.51.35,1.08.35,1.69s-.12,1.17-.35,1.69c-.24.51-.57.94-1,1.28-.43.34-.95.55-1.54.64-.15.02-.29.04-.42.05-.12.01-.25.02-.37.02h-3.79v4.9h-.71ZM312.54,43.89h3.79c.1,0,.21,0,.34-.02s.27-.03.4-.05c.47-.09.87-.28,1.19-.56s.56-.63.73-1.03.25-.84.25-1.3-.08-.89-.25-1.3-.41-.75-.73-1.03c-.32-.28-.72-.47-1.19-.56-.14-.03-.27-.05-.4-.06-.13,0-.25-.01-.34-.01h-3.79v5.92Z"/>
      <path class="cls-1" d="M321.7,49.5v-9.18h.66v2.19l-.22-.29c.1-.25.22-.48.37-.7.15-.22.29-.39.43-.53.25-.24.55-.43.89-.56.34-.13.69-.2,1.03-.22.35-.02.65.01.92.1v.68c-.38-.08-.78-.1-1.21-.05-.43.05-.82.25-1.19.59-.32.3-.55.65-.68,1.04-.13.39-.21.79-.24,1.21-.03.42-.04.81-.04,1.19v4.52h-.71Z"/>
      <path class="cls-1" d="M330.92,49.75c-.91,0-1.67-.21-2.29-.62-.62-.41-1.1-.99-1.42-1.72-.32-.73-.48-1.57-.48-2.53s.17-1.81.49-2.53c.33-.73.81-1.29,1.43-1.69s1.38-.6,2.27-.6,1.68.21,2.3.62c.62.41,1.09.98,1.42,1.7s.48,1.56.48,2.51-.16,1.82-.48,2.55c-.32.73-.8,1.3-1.42,1.7-.63.41-1.39.61-2.29.61ZM330.92,49.04c1.16,0,2.02-.38,2.58-1.15.57-.77.85-1.77.85-3s-.29-2.25-.85-3-1.43-1.12-2.58-1.12c-.78,0-1.42.18-1.92.53-.51.35-.89.84-1.13,1.45-.25.62-.37,1.33-.37,2.13,0,1.25.29,2.25.87,3.01.58.76,1.43,1.14,2.56,1.14Z"/>
      <path class="cls-1" d="M339.13,49.5l-3.33-9.18h.75l2.98,8.14,2.96-8.14h.76l-3.33,9.18h-.78Z"/>
      <path class="cls-1" d="M344.94,38.35v-1.09h.71v1.09h-.71ZM344.94,49.5v-9.18h.71v9.18h-.71Z"/>
      <path class="cls-1" d="M348.21,49.5v-9.18h.66v1.87h.05v7.31h-.71ZM355.02,49.5v-4.86c0-.66-.07-1.22-.2-1.7-.13-.48-.33-.88-.59-1.19s-.58-.55-.95-.7c-.37-.15-.79-.23-1.27-.23-.56,0-1.04.1-1.43.29-.39.2-.71.46-.96.8-.24.34-.42.73-.54,1.17-.11.44-.17.91-.17,1.4l-.66.02c0-1.05.17-1.89.52-2.54s.8-1.11,1.37-1.41c.57-.29,1.19-.44,1.87-.44.46,0,.89.07,1.28.2.39.13.73.32,1.04.57.3.25.56.55.77.91.21.36.37.76.48,1.22s.16.96.16,1.5v5h-.71Z"/>
      <path class="cls-1" d="M361.64,49.75c-.91,0-1.68-.2-2.29-.61-.62-.41-1.08-.98-1.4-1.7-.32-.73-.48-1.57-.5-2.53.02-.98.19-1.83.51-2.56s.79-1.29,1.41-1.69c.62-.4,1.38-.6,2.29-.6.85,0,1.61.2,2.27.61.67.41,1.14.96,1.42,1.67l-.68.29c-.25-.59-.65-1.04-1.18-1.37-.53-.32-1.14-.48-1.83-.48-.77,0-1.41.17-1.91.52-.5.35-.88.83-1.13,1.45-.25.62-.38,1.34-.39,2.16.02,1.25.31,2.25.88,3,.57.75,1.42,1.13,2.55,1.13.67,0,1.27-.16,1.79-.47.52-.31.92-.77,1.2-1.37l.7.31c-.38.74-.88,1.29-1.5,1.67s-1.35.57-2.18.57Z"/>
      <path class="cls-1" d="M367.03,38.35v-1.09h.71v1.09h-.71ZM367.03,49.5v-9.18h.71v9.18h-.71Z"/>
      <path class="cls-1" d="M372.96,49.75c-.71,0-1.31-.12-1.78-.37-.47-.25-.82-.58-1.05-.99-.23-.41-.35-.85-.35-1.33,0-.54.12-.99.35-1.34.23-.35.54-.63.92-.84.38-.2.79-.35,1.22-.44.53-.11,1.1-.2,1.71-.29s1.17-.15,1.69-.21.9-.1,1.16-.14l-.25.17c.03-1.08-.17-1.89-.59-2.42-.42-.53-1.17-.79-2.23-.79-.77,0-1.39.17-1.86.51s-.79.87-.98,1.58l-.78-.2c.2-.85.62-1.5,1.25-1.94.63-.44,1.43-.66,2.4-.66.85,0,1.56.17,2.12.52.57.35.95.81,1.16,1.4.08.23.14.5.17.82.03.32.05.64.05.94v5.75h-.66v-2.52l.34.02c-.24.87-.73,1.55-1.45,2.03-.73.48-1.58.72-2.56.72ZM372.92,49.04c.66,0,1.25-.12,1.75-.36.51-.24.92-.58,1.23-1.03s.51-.99.6-1.62c.04-.32.07-.66.07-1.02v-.78l.37.29c-.3.03-.71.07-1.25.12-.53.05-1.09.11-1.68.19-.59.08-1.12.17-1.6.29-.28.07-.56.18-.86.32-.29.15-.54.35-.74.62s-.3.61-.3,1.03c0,.29.07.59.22.89.15.3.39.55.74.76s.83.31,1.43.31Z"/>
      <path class="cls-1" d="M379.67,49.5v-12.5h.71v12.5h-.71Z"/>
      <path class="cls-1" d="M248.45,66.4c-.87,0-1.6-.21-2.19-.64-.59-.43-1.04-1.01-1.35-1.74-.31-.73-.46-1.56-.46-2.48s.15-1.72.45-2.45c.3-.73.74-1.31,1.31-1.74.57-.43,1.27-.64,2.1-.64s1.58.21,2.16.62c.59.42,1.03.99,1.33,1.72.3.73.45,1.56.45,2.49s-.15,1.74-.45,2.47c-.3.73-.73,1.32-1.3,1.75s-1.26.65-2.07.65ZM248.45,65.68c.72,0,1.32-.18,1.81-.54s.85-.86,1.09-1.48c.24-.63.37-1.33.37-2.12s-.12-1.51-.37-2.13-.61-1.11-1.1-1.46c-.48-.35-1.08-.53-1.8-.53s-1.34.18-1.81.54c-.48.36-.83.85-1.07,1.47-.23.62-.35,1.32-.35,2.1s.12,1.5.37,2.12c.24.63.6,1.12,1.08,1.48.48.36,1.07.54,1.78.54ZM251.72,66.14v-7.22h-.05v-5.02h.71v12.24h-.66Z"/>
      <path class="cls-1" d="M258.45,66.4c-.87,0-1.61-.2-2.24-.59-.63-.39-1.11-.95-1.45-1.67-.34-.73-.51-1.59-.51-2.58s.17-1.87.51-2.59.82-1.28,1.45-1.67c.63-.39,1.38-.58,2.25-.58s1.63.2,2.25.59c.62.4,1.1.97,1.43,1.73.33.75.5,1.66.5,2.73h-.76v-.24c-.03-1.32-.34-2.33-.93-3.04-.59-.71-1.42-1.06-2.49-1.06s-1.93.36-2.53,1.08c-.6.72-.9,1.74-.9,3.05s.3,2.32.9,3.05,1.45,1.08,2.53,1.08c.76,0,1.42-.18,2-.54.57-.36,1.03-.87,1.37-1.54l.59.34c-.37.78-.9,1.39-1.59,1.81-.69.43-1.48.64-2.37.64ZM254.71,61.76v-.71h7.48v.71h-7.48Z"/>
      <path class="cls-1" d="M267.9,66.14v-12.24h7.48v.71h-6.77v5.05h5.75v.71h-5.75v5.05h6.77v.71h-7.48Z"/>
      <path class="cls-1" d="M280.9,66.4c-.87,0-1.6-.21-2.19-.64-.59-.43-1.04-1.01-1.35-1.74-.31-.73-.46-1.56-.46-2.48s.15-1.72.45-2.45c.3-.73.74-1.31,1.31-1.74s1.27-.64,2.1-.64,1.58.21,2.16.62c.59.42,1.03.99,1.33,1.72.3.73.45,1.56.45,2.49s-.15,1.74-.45,2.47c-.3.73-.73,1.32-1.3,1.75s-1.25.65-2.07.65ZM280.9,65.68c.72,0,1.32-.18,1.81-.54s.85-.86,1.09-1.48c.24-.63.37-1.33.37-2.12s-.12-1.51-.37-2.13c-.25-.62-.61-1.11-1.1-1.46-.48-.35-1.08-.53-1.8-.53s-1.34.18-1.81.54c-.48.36-.83.85-1.07,1.47-.23.62-.35,1.32-.35,2.1s.12,1.5.37,2.12c.24.63.6,1.12,1.08,1.48.48.36,1.07.54,1.78.54ZM284.17,66.14v-7.22h-.05v-5.02h.71v12.24h-.66Z"/>
      <path class="cls-1" d="M290.76,66.35c-.46,0-.89-.07-1.28-.2-.39-.13-.73-.32-1.04-.57-.3-.25-.56-.55-.77-.91-.21-.36-.37-.76-.48-1.22s-.16-.96-.16-1.5v-5h.71v4.86c0,.65.07,1.22.2,1.7s.33.88.59,1.19.58.55.95.7c.37.15.79.23,1.27.23.56,0,1.04-.1,1.43-.29.39-.2.71-.46.96-.8.24-.34.42-.73.54-1.17.11-.44.17-.91.17-1.4l.66-.02c0,1.05-.17,1.89-.52,2.54-.35.64-.8,1.11-1.37,1.41-.57.29-1.19.44-1.87.44ZM293.91,66.14v-1.87h-.05v-7.31h.71v9.18h-.66Z"/>
      <path class="cls-1" d="M300.64,66.4c-.91,0-1.68-.2-2.29-.61-.62-.41-1.08-.98-1.4-1.7-.32-.73-.48-1.57-.5-2.53.02-.98.19-1.83.51-2.56s.79-1.29,1.41-1.69c.62-.4,1.38-.6,2.29-.6.85,0,1.61.2,2.27.61.67.41,1.14.96,1.42,1.67l-.68.29c-.25-.59-.65-1.04-1.18-1.37-.53-.32-1.14-.48-1.83-.48-.77,0-1.41.17-1.91.52-.5.35-.88.83-1.13,1.45-.25.62-.38,1.34-.39,2.16.02,1.25.31,2.25.88,3,.57.75,1.42,1.13,2.55,1.13.67,0,1.27-.16,1.79-.47.52-.31.92-.77,1.2-1.37l.7.31c-.38.74-.88,1.29-1.5,1.67s-1.35.57-2.18.57Z"/>
      <path class="cls-1" d="M308.78,66.4c-.71,0-1.31-.12-1.78-.37-.47-.25-.82-.58-1.05-.99-.23-.41-.35-.85-.35-1.33,0-.54.12-.99.35-1.34.23-.35.54-.63.92-.84.38-.2.79-.35,1.22-.44.53-.11,1.1-.2,1.71-.29s1.17-.15,1.69-.21.9-.1,1.16-.14l-.25.17c.03-1.08-.17-1.89-.59-2.42-.42-.53-1.17-.79-2.23-.79-.77,0-1.39.17-1.86.51s-.79.87-.98,1.58l-.78-.2c.2-.85.62-1.5,1.25-1.94.63-.44,1.43-.66,2.4-.66.85,0,1.56.17,2.12.52.57.35.95.81,1.16,1.4.08.23.14.5.17.82.03.32.05.64.05.94v5.75h-.66v-2.52l.34.02c-.24.87-.73,1.55-1.45,2.03-.73.48-1.58.72-2.56.72ZM308.75,65.68c.66,0,1.25-.12,1.75-.36.51-.24.92-.58,1.23-1.03s.51-.99.6-1.62c.04-.32.07-.66.07-1.02v-.78l.37.29c-.3.03-.71.07-1.25.12-.53.05-1.09.11-1.68.19-.59.08-1.12.17-1.6.29-.28.07-.56.18-.86.32-.29.15-.54.35-.74.62s-.3.61-.3,1.03c0,.29.07.59.22.89.15.3.39.55.74.76s.83.31,1.43.31Z"/>
      <path class="cls-1" d="M319.02,66.4c-.91,0-1.68-.2-2.29-.61-.62-.41-1.08-.98-1.4-1.7-.32-.73-.48-1.57-.5-2.53.02-.98.19-1.83.51-2.56s.79-1.29,1.41-1.69c.62-.4,1.38-.6,2.29-.6.85,0,1.61.2,2.27.61.67.41,1.14.96,1.42,1.67l-.68.29c-.25-.59-.65-1.04-1.18-1.37-.53-.32-1.14-.48-1.83-.48-.77,0-1.41.17-1.91.52-.5.35-.88.83-1.13,1.45-.25.62-.38,1.34-.39,2.16.02,1.25.31,2.25.88,3,.57.75,1.42,1.13,2.55,1.13.67,0,1.27-.16,1.79-.47.52-.31.92-.77,1.2-1.37l.7.31c-.38.74-.88,1.29-1.5,1.67s-1.35.57-2.18.57Z"/>
      <path class="cls-1" d="M324.41,54.99v-1.09h.71v1.09h-.71ZM324.41,66.14v-9.18h.71v9.18h-.71Z"/>
      <path class="cls-1" d="M331.36,66.4c-.91,0-1.67-.21-2.29-.62-.62-.41-1.1-.99-1.42-1.72-.32-.73-.48-1.57-.48-2.53s.17-1.81.49-2.53c.33-.73.81-1.29,1.43-1.69s1.38-.6,2.27-.6,1.68.21,2.3.62c.62.41,1.09.98,1.42,1.7s.48,1.56.48,2.51-.16,1.82-.48,2.55c-.32.73-.8,1.3-1.42,1.7-.63.41-1.39.61-2.29.61ZM331.36,65.68c1.16,0,2.02-.38,2.58-1.15.57-.77.85-1.77.85-3s-.29-2.25-.85-3-1.43-1.12-2.58-1.12c-.78,0-1.42.18-1.92.53-.51.35-.89.84-1.13,1.45-.25.62-.37,1.33-.37,2.13,0,1.25.29,2.25.87,3.01.58.76,1.43,1.14,2.56,1.14ZM331.71,55.43h-.75l.82-2.29h.75l-.82,2.29Z"/>
      <path class="cls-1" d="M337.43,66.14v-9.18h.66v1.87h.05v7.31h-.71ZM344.24,66.14v-4.86c0-.66-.07-1.22-.2-1.7-.13-.48-.33-.88-.59-1.19s-.58-.55-.95-.7c-.37-.15-.79-.23-1.27-.23-.56,0-1.04.1-1.43.29-.39.2-.71.46-.96.8-.24.34-.42.73-.54,1.17-.11.44-.17.91-.17,1.4l-.66.02c0-1.05.17-1.89.52-2.54s.8-1.11,1.37-1.41c.57-.29,1.19-.44,1.87-.44.46,0,.89.07,1.28.2.39.13.73.32,1.04.57.3.25.56.55.77.91.21.36.37.76.48,1.22s.16.96.16,1.5v5h-.71Z"/>
    </g>
  </g>
</svg>